HIERARCHY
ROOT Root
{
  OFFSET 0.0 0.0 0.0
  CHANNELS 6 Xposition Yposition Zposition Zrotation Yrotation Xrotation
  JOINT Hips
  {
    OFFSET 0.0 100.0 0.0
    CHANNELS 6 Xposition Yposition Zposition Zrotation Yrotation Xrotation
    JOINT Spine1
    {
      OFFSET -0.013727 5.003763 -0.053727
      CHANNELS 3 Zrotation Yrotation Xrotation
      JOINT Spine2
      {
        OFFSET -0.0 7.125301 -0.029825
        CHANNELS 3 Zrotation Yrotation Xrotation
        JOINT Chest
        {
          OFFSET -1e-06 7.550063 -0.815971
          CHANNELS 3 Zrotation Yrotation Xrotation
          JOINT Neck1
          {
            OFFSET -0.181677 26.311295 -0.553348
            CHANNELS 3 Zrotation Yrotation Xrotation
            JOINT Neck2
            {
              OFFSET -3e-06 7.709397 2.302585
              CHANNELS 3 Zrotation Yrotation Xrotation
              JOINT Head
              {
                OFFSET -5e-06 6.128916 1.953709
                CHANNELS 3 Zrotation Yrotation Xrotation
                JOINT HeadEnd
                {
                  OFFSET 0.003598 16.065403 -1.835379
                  CHANNELS 3 Zrotation Yrotation Xrotation
                }
                JOINT Jaw
                {
                  OFFSET 0.002637 0.475592 3.094941
                  CHANNELS 3 Zrotation Yrotation Xrotation
                }
                JOINT LeftEye
                {
                  OFFSET 3.206381 5.380205 7.586883
                  CHANNELS 3 Zrotation Yrotation Xrotation
                }
                JOINT RightEye
                {
                  OFFSET -3.22244 5.361869 7.558234
                  CHANNELS 3 Zrotation Yrotation Xrotation
                }
              }
            }
          }
          JOINT LeftShoulder
          {
            OFFSET 1.621652 23.237164 5.113413
            CHANNELS 3 Zrotation Yrotation Xrotation
            JOINT LeftArm
            {
              OFFSET 14.919846 2e-06 -5.502326
              CHANNELS 3 Zrotation Yrotation Xrotation
              JOINT LeftForeArm
              {
                OFFSET 28.739307 0.0 -0.002588
                CHANNELS 3 Zrotation Yrotation Xrotation
                JOINT LeftHand
                {
                  OFFSET 27.093981 -1e-06 0.002609
                  CHANNELS 3 Zrotation Yrotation Xrotation
                  JOINT LeftHandThumb1
                  {
                    OFFSET 2.276482 -1.392045 3.191413
                    CHANNELS 3 Zrotation Yrotation Xrotation
                    JOINT LeftHandThumb2
                    {
                      OFFSET 4.012836 -1.828127 1.641654
                      CHANNELS 3 Zrotation Yrotation Xrotation
                      JOINT LeftHandThumb3
                      {
                        OFFSET 2.798515 0.0 -3e-06
                        CHANNELS 3 Zrotation Yrotation Xrotation
                        JOINT LeftHandThumbEnd
                        {
                          OFFSET 3.180793 -4e-06 4e-06
                          CHANNELS 3 Zrotation Yrotation Xrotation
                        }
                      }
                    }
                  }
                  JOINT LeftHandIndex1
                  {
                    OFFSET 3.247555 -0.531998 2.296169
                    CHANNELS 3 Zrotation Yrotation Xrotation
                    JOINT LeftHandIndex2
                    {
                      OFFSET 6.364578 0.01206 0.1786
                      CHANNELS 3 Zrotation Yrotation Xrotation
                      JOINT LeftHandIndex3
                      {
                        OFFSET 3.662364 0.0 0.0
                        CHANNELS 3 Zrotation Yrotation Xrotation
                        JOINT LeftHandIndex4
                        {
                          OFFSET 2.329242 4e-06 4e-06
                          CHANNELS 3 Zrotation Yrotation Xrotation
                          JOINT LeftHandIndexEnd
                          {
                            OFFSET 2.759615 -0.180537 -0.113024
                            CHANNELS 3 Zrotation Yrotation Xrotation
                          }
                        }
                      }
                    }
                  }
                  JOINT LeftHandMiddle1
                  {
                    OFFSET 3.163495 0.240981 1.000332
                    CHANNELS 3 Zrotation Yrotation Xrotation
                    JOINT LeftHandMiddle2
                    {
                      OFFSET 6.19078 -0.259278 -1.002548
                      CHANNELS 3 Zrotation Yrotation Xrotation
                      JOINT LeftHandMiddle3
                      {
                        OFFSET 4.35652 -4e-06 -1e-06
                        CHANNELS 3 Zrotation Yrotation Xrotation
                        JOINT LeftHandMiddle4
                        {
                          OFFSET 2.996877 -8e-06 0.0
                          CHANNELS 3 Zrotation Yrotation Xrotation
                          JOINT LeftHandMiddleEnd
                          {
                            OFFSET 2.304287 -0.294569 -0.031741
                            CHANNELS 3 Zrotation Yrotation Xrotation
                          }
                        }
                      }
                    }
                  }
                  JOINT LeftHandRing1
                  {
                    OFFSET 2.882643 -0.053652 -0.322543
                    CHANNELS 3 Zrotation Yrotation Xrotation
                    JOINT LeftHandRing2
                    {
                      OFFSET 5.854541 -0.486202 -1.373841
                      CHANNELS 3 Zrotation Yrotation Xrotation
                      JOINT LeftHandRing3
                      {
                        OFFSET 4.350578 0.0 3e-06
                        CHANNELS 3 Zrotation Yrotation Xrotation
                        JOINT LeftHandRing4
                        {
                          OFFSET 2.651321 7e-06 2e-06
                          CHANNELS 3 Zrotation Yrotation Xrotation
                          JOINT LeftHandRingEnd
                          {
                            OFFSET 1.936105 0.077687 -7.1e-05
                            CHANNELS 3 Zrotation Yrotation Xrotation
                          }
                        }
                      }
                    }
                  }
                  JOINT LeftHandPinky1
                  {
                    OFFSET 2.8655 -0.310005 -1.600378
                    CHANNELS 3 Zrotation Yrotation Xrotation
                    JOINT LeftHandPinky2
                    {
                      OFFSET 5.087849 -1.331141 -1.77123
                      CHANNELS 3 Zrotation Yrotation Xrotation
                      JOINT LeftHandPinky3
                      {
                        OFFSET 3.070974 4e-06 0.0
                        CHANNELS 3 Zrotation Yrotation Xrotation
                        JOINT LeftHandPinky4
                        {
                          OFFSET 1.549672 0.0 1e-06
                          CHANNELS 3 Zrotation Yrotation Xrotation
                          JOINT LeftHandPinkyEnd
                          {
                            OFFSET 1.944893 -0.157802 0.057219
                            CHANNELS 3 Zrotation Yrotation Xrotation
                          }
                        }
                      }
                    }
                  }
                }
              }
            }
          }
          JOINT RightShoulder
          {
            OFFSET -1.380118 23.180309 5.214158
            CHANNELS 3 Zrotation Yrotation Xrotation
            JOINT RightArm
            {
              OFFSET -15.037196 1.2e-05 -5.545604
              CHANNELS 3 Zrotation Yrotation Xrotation
              JOINT RightForeArm
              {
                OFFSET -28.736639 2e-06 -0.002597
                CHANNELS 3 Zrotation Yrotation Xrotation
                JOINT RightHand
                {
                  OFFSET -27.133619 -0.0 0.002613
                  CHANNELS 3 Zrotation Yrotation Xrotation
                  JOINT RightHandThumb1
                  {
                    OFFSET -2.274032 -1.383988 3.163127
                    CHANNELS 3 Zrotation Yrotation Xrotation
                    JOINT RightHandThumb2
                    {
                      OFFSET -4.011429 -1.827466 1.640914
                      CHANNELS 3 Zrotation Yrotation Xrotation
                      JOINT RightHandThumb3
                      {
                        OFFSET -2.794935 -4e-06 -3e-06
                        CHANNELS 3 Zrotation Yrotation Xrotation
                        JOINT RightHandThumbEnd
                        {
                          OFFSET -3.183852 4e-06 1e-06
                          CHANNELS 3 Zrotation Yrotation Xrotation
                        }
                      }
                    }
                  }
                  JOINT RightHandIndex1
                  {
                    OFFSET -3.253266 -0.520057 2.282866
                    CHANNELS 3 Zrotation Yrotation Xrotation
                    JOINT RightHandIndex2
                    {
                      OFFSET -6.341917 0.012471 0.178266
                      CHANNELS 3 Zrotation Yrotation Xrotation
                      JOINT RightHandIndex3
                      {
                        OFFSET -3.654871 -8e-06 -0.0
                        CHANNELS 3 Zrotation Yrotation Xrotation
                        JOINT RightHandIndex4
                        {
                          OFFSET -2.327586 0.0 1e-06
                          CHANNELS 3 Zrotation Yrotation Xrotation
                          JOINT RightHandIndexEnd
                          {
                            OFFSET -2.76179 -0.180656 -0.113078
                            CHANNELS 3 Zrotation Yrotation Xrotation
                          }
                        }
                      }
                    }
                  }
                  JOINT RightHandMiddle1
                  {
                    OFFSET -3.168106 0.246593 1.00103
                    CHANNELS 3 Zrotation Yrotation Xrotation
                    JOINT RightHandMiddle2
                    {
                      OFFSET -6.180828 -0.258836 -1.000895
                      CHANNELS 3 Zrotation Yrotation Xrotation
                      JOINT RightHandMiddle3
                      {
                        OFFSET -4.348901 0.0 -0.0
                        CHANNELS 3 Zrotation Yrotation Xrotation
                        JOINT RightHandMiddle4
                        {
                          OFFSET -3.00024 -4e-06 -2e-06
                          CHANNELS 3 Zrotation Yrotation Xrotation
                          JOINT RightHandMiddleEnd
                          {
                            OFFSET -2.30252 -0.29437 -0.031706
                            CHANNELS 3 Zrotation Yrotation Xrotation
                          }
                        }
                      }
                    }
                  }
                  JOINT RightHandRing1
                  {
                    OFFSET -2.88569 -0.067952 -0.308858
                    CHANNELS 3 Zrotation Yrotation Xrotation
                    JOINT RightHandRing2
                    {
                      OFFSET -5.854198 -0.48613 -1.373731
                      CHANNELS 3 Zrotation Yrotation Xrotation
                      JOINT RightHandRing3
                      {
                        OFFSET -4.33881 -4e-06 -0.0
                        CHANNELS 3 Zrotation Yrotation Xrotation
                        JOINT RightHandRing4
                        {
                          OFFSET -2.654903 -4e-06 4e-06
                          CHANNELS 3 Zrotation Yrotation Xrotation
                          JOINT RightHandRingEnd
                          {
                            OFFSET -1.933568 0.077527 -5.2e-05
                            CHANNELS 3 Zrotation Yrotation Xrotation
                          }
                        }
                      }
                    }
                  }
                  JOINT RightHandPinky1
                  {
                    OFFSET -2.866425 -0.342796 -1.584145
                    CHANNELS 3 Zrotation Yrotation Xrotation
                    JOINT RightHandPinky2
                    {
                      OFFSET -5.091371 -1.332055 -1.772385
                      CHANNELS 3 Zrotation Yrotation Xrotation
                      JOINT RightHandPinky3
                      {
                        OFFSET -3.062664 -4e-06 1e-06
                        CHANNELS 3 Zrotation Yrotation Xrotation
                        JOINT RightHandPinky4
                        {
                          OFFSET -1.546529 4e-06 -2e-06
                          CHANNELS 3 Zrotation Yrotation Xrotation
                          JOINT RightHandPinkyEnd
                          {
                            OFFSET -1.945119 -0.157718 0.057211
                            CHANNELS 3 Zrotation Yrotation Xrotation
                          }
                        }
                      }
                    }
                  }
                }
              }
            }
          }
        }
      }
    }
    JOINT LeftLeg
    {
      OFFSET 10.043214 -8.434526 2.595655
      CHANNELS 3 Zrotation Yrotation Xrotation
      JOINT LeftShin
      {
        OFFSET -1e-06 -43.221752 -0.802913
        CHANNELS 3 Zrotation Yrotation Xrotation
        JOINT LeftFoot
        {
          OFFSET 1e-06 -42.155094 -3.481523
          CHANNELS 3 Zrotation Yrotation Xrotation
          JOINT LeftToeBase
          {
            OFFSET 0.0 -5.059472 13.231529
            CHANNELS 3 Zrotation Yrotation Xrotation
            JOINT LeftToeEnd
            {
              OFFSET -0.009607 -1.647619 6.513017
              CHANNELS 3 Zrotation Yrotation Xrotation
            }
          }
        }
      }
    }
    JOINT RightLeg
    {
      OFFSET -10.047278 -8.29526 2.620317
      CHANNELS 3 Zrotation Yrotation Xrotation
      JOINT RightShin
      {
        OFFSET 1e-06 -43.362206 -0.805556
        CHANNELS 3 Zrotation Yrotation Xrotation
        JOINT RightFoot
        {
          OFFSET 2e-06 -42.117393 -3.478398
          CHANNELS 3 Zrotation Yrotation Xrotation
          JOINT RightToeBase
          {
            OFFSET -0.0 -5.079609 13.284196
            CHANNELS 3 Zrotation Yrotation Xrotation
            JOINT RightToeEnd
            {
              OFFSET 0.009532 -1.634378 6.460591
              CHANNELS 3 Zrotation Yrotation Xrotation
            }
          }
        }
      }
    }
  }
}
MOTION
Frames: 4
Frame Time: 0.03333333333333333
0.0 0.0 0.0 0.0 -0.0 0.0 0.87176 48.086597 0.251101 -0.22763 0.331158 46.406834 -0.301677 0.893778 19.24465 -0.190754 -0.489182 0.701034 1.811018 -2.044673 11.839791 0.516983 3.693964 3.618976 -0.205677 0.886213 -3.399457 -1.560676 0.229296 1.993666 7.7e-05 -2.2e-05 6e-06 0.26871 -0.030434 -0.145411 0.94127 -3.708525 -10.538469 -0.405907 3.653203 -10.573825 11.066545 -32.524837 4.069702 -5.255949 -25.196325 -25.688942 1.334518 -48.071629 -0.091154 56.353745 7.806884 1.537756 -5.882103 9.86128 0.70259 -10.936863 -0.360574 7.1562 1e-06 8.774819 0.0 -16.444532 18.202288 6.446826 -1.844032 2.498503 -2.507276 -10.163592 4.678944 4.621106 -20.976006 -3e-06 4e-06 -21.226271 2.451698 -3.593996 0.0 -6e-06 -0.0 -1.362681 2.240797 -0.746323 -21.334898 0.58491 3.008321 -13.821204 -1e-06 2e-06 -23.887157 -0.249077 -0.839481 -60.887306 2.482061 -1.030503 -0.294025 1.679685 0.833256 -14.218198 0.093216 1.30058 -34.212021 -0.287561 0.967169 -20.033197 0.964537 1.212842 0.0 0.0 0.0 -3.440387 0.788233 0.501656 -15.928176 -3.167307 2.999705 -6.338822 -1e-06 1e-06 -18.123434 3.648183 -4.905666 -5e-06 0.0 -2e-06 -8.824555 34.61573 3.5761 21.569002 49.026432 -3.526673 0.69321 28.760216 0.315847 -80.92659 -2.838164 12.575395 2.243541 -5.255033 -3.180156 14.282892 -0.826595 6.9525 -1e-06 -12.690598 0.0 16.144419 -17.773754 3.1367 1.665666 -1.95592 -2.878298 4.727798 -4.170586 4.993922 11.020522 3e-06 -1e-06 12.109053 -3.735714 -2.866781 -0.0 1e-06 -1e-06 1.291985 -1.92855 -1.498089 14.800129 0.567466 3.865606 14.242572 -1.341737 -6.660654 19.631968 0.143924 -0.648245 49.334152 -0.880064 -6.129138 0.353028 -1.51115 -0.03194 20.222795 3.684307 2.31663 18.787275 3e-06 -1e-06 10.751631 -0.479869 1.397905 1e-06 0.0 0.0 3.273807 0.305947 -0.580111 21.486813 11.830367 2.266132 8.162926 1e-06 -1e-06 18.399084 -3.798984 -4.940575 3e-06 0.0 -1e-06 -3.10053 2.535213 -58.763279 0.090805 1.606637 116.951416 5.517118 -15.022797 31.048315 1.244931 -1.913507 -11.185439 0.0 -1e-06 1e-06 -1.404533 -7.491561 -22.697641 0.409806 2.92977 78.851463 3.390101 14.985665 33.59359 -1.454089 0.806477 -5.027439 -0.0 0.0 -3e-06 
0.0 0.0 0.0 0.0 -0.0 0.0 1.32521 48.649563 1.819584 -1.189346 0.979805 46.752296 0.222106 0.730447 19.509487 0.030934 -0.526273 0.770671 2.172489 -2.043911 11.770588 0.753208 3.20932 2.606758 0.18132 1.325565 -3.395708 -1.835873 0.72981 2.0118 7.7e-05 -2.3e-05 6e-06 0.204367 -0.027743 -0.157198 0.85242 -3.717997 -10.497175 -0.445803 3.664812 -10.550982 13.035348 -35.114216 2.853337 0.175012 -23.431314 -30.194307 0.606146 -40.376133 -0.2584 55.389797 8.429635 -0.9654 -5.882103 9.861284 0.70259 -10.936868 -0.360575 7.156205 -0.0 8.774824 -1e-06 -16.329697 18.091873 6.239352 -1.844032 2.498504 -2.507278 -10.163598 4.678944 4.621108 -20.976021 -6e-06 3e-06 -21.22628 2.451693 -3.593999 -0.0 -5e-06 1e-06 -1.36268 2.240798 -0.746323 -21.334911 0.584906 3.008324 -13.82121 -4e-06 2e-06 -23.887167 -0.249081 -0.83948 -60.359051 2.584121 -1.097081 -0.294024 1.679688 0.833256 -14.218205 0.093213 1.30058 -34.212048 -0.287567 0.967172 -20.033211 0.964535 1.212846 -0.0 0.0 0.0 -3.440388 0.788233 0.501656 -15.928183 -3.167311 2.999707 -6.338823 -2e-06 1e-06 -18.12344 3.648179 -4.905669 -6e-06 0.0 -2e-06 -8.307027 35.559418 3.957435 20.327723 49.049198 -5.052994 0.230146 27.520967 0.055474 -79.418785 -2.938212 10.184793 2.243539 -5.255035 -3.180157 14.282874 -0.826591 6.952498 -2e-06 -12.6906 -1e-06 16.024038 -17.608831 3.127306 1.665664 -1.955921 -2.878297 4.727793 -4.170584 4.993921 11.020513 5e-06 -2e-06 12.109036 -3.735711 -2.866785 1e-06 -0.0 -1e-06 1.291984 -1.928548 -1.498089 14.800112 0.567471 3.865605 14.242557 -1.341734 -6.660656 19.631945 0.14393 -0.648244 49.183167 -0.830546 -6.112997 0.353029 -1.511151 -0.03194 20.222769 3.68431 2.316628 18.787251 7e-06 1e-06 10.751617 -0.479867 1.397906 -0.0 0.0 -0.0 3.273803 0.305947 -0.580111 21.48679 11.830373 2.266133 8.162919 2e-06 1e-06 18.399059 -3.798982 -4.94057 2e-06 -0.0 -1e-06 -2.47202 2.391785 -57.073147 0.088306 1.391768 114.570572 5.351177 -14.4652 30.370647 1.246809 -1.915891 -10.2073 1e-06 -1e-06 1e-06 -0.598324 -8.014773 -26.440119 0.541608 2.580054 83.572655 2.828187 13.0769 32.460178 -1.571096 0.801603 -4.109383 -0.0 0.0 -4e-06 
0.0 0.0 0.0 0.0 -0.0 0.0 1.866206 49.054375 3.339655 -1.792309 1.504824 46.729885 0.503385 0.584309 19.80341 0.1215 -0.617377 0.885814 2.712929 -2.281089 11.887708 1.10531 2.856182 1.718701 0.313374 1.721553 -3.441011 -1.913445 1.248908 2.348348 7.7e-05 -2.3e-05 6e-06 0.169901 -0.024444 -0.16274 0.804427 -3.735601 -10.534533 -0.466572 3.684399 -10.564234 15.481845 -37.246853 1.721148 3.22816 -21.960644 -32.0107 -0.041445 -33.877804 -0.195234 53.488361 9.520724 -3.579082 -5.882101 9.861278 0.70259 -10.936863 -0.360575 7.156199 1e-06 8.774818 -0.0 -16.277246 18.081131 6.031536 -1.844031 2.498502 -2.507275 -10.16359 4.67894 4.621105 -20.976009 -4e-06 4e-06 -21.226271 2.451695 -3.593995 -0.0 -6e-06 -0.0 -1.36268 2.240796 -0.746322 -21.334896 0.584907 3.00832 -13.821203 -4e-06 2e-06 -23.887152 -0.24908 -0.839481 -60.200699 2.675995 -1.122653 -0.294025 1.679686 0.833256 -14.218198 0.093215 1.300579 -34.212021 -0.287565 0.967169 -20.033197 0.964535 1.212843 -0.0 -0.0 0.0 -3.440386 0.788232 0.501655 -15.928174 -3.167307 2.999703 -6.338821 -2e-06 1e-06 -18.12343 3.64818 -4.905665 -6e-06 0.0 -2e-06 -7.705405 36.215561 4.273429 19.470785 49.142162 -6.15203 0.197006 26.614378 0.021539 -78.827988 -2.729308 8.657351 2.243538 -5.255029 -3.180152 14.282876 -0.826594 6.952494 -4e-06 -12.690589 3e-06 16.078293 -17.572727 3.042014 1.665663 -1.955918 -2.878295 4.727793 -4.170582 4.993919 11.020513 6e-06 -1e-06 12.109038 -3.735711 -2.86678 1e-06 1e-06 -1e-06 1.291983 -1.928547 -1.498087 14.800112 0.567468 3.865601 14.242557 -1.341732 -6.660649 19.63195 0.143928 -0.648245 49.131184 -0.837132 -6.190249 0.353029 -1.511149 -0.03194 20.222769 3.684306 2.316625 18.787251 6e-06 -1e-06 10.751616 -0.479867 1.397904 -0.0 0.0 0.0 3.273802 0.305948 -0.58011 21.486788 11.830361 2.266125 8.162917 2e-06 -1e-06 18.399061 -3.798979 -4.940569 3e-06 0.0 -1e-06 -2.0159 2.100136 -54.947571 0.057222 1.22631 112.247643 5.130503 -14.096482 29.960749 1.224326 -1.904019 -9.753054 1e-06 -1e-06 1e-06 -0.318731 -8.526377 -30.392914 0.632116 2.351468 89.229042 2.787489 11.833082 31.980227 -1.641832 0.807588 -3.401301 -0.0 0.0 -3e-06 
0.0 0.0 0.0 0.0 -0.0 0.0 2.390199 49.311039 4.902524 -2.068142 1.915476 46.634766 0.651798 0.403244 20.022703 0.135805 -0.795004 0.985413 3.260218 -2.648664 11.97679 1.437276 2.608887 1.047185 0.382868 2.098086 -3.476064 -2.115166 1.791645 2.682727 7.7e-05 -2.2e-05 6e-06 0.172366 -0.027069 -0.16681 0.813767 -3.758078 -10.590825 -0.471091 3.698437 -10.59697 17.349348 -38.814583 1.046397 4.61214 -20.998774 -32.042725 -0.746044 -29.258287 -0.066107 51.470448 10.526168 -5.422306 -5.882102 9.861281 0.70259 -10.936866 -0.360576 7.156202 1e-06 8.774821 -2e-06 -16.128311 17.983477 5.923795 -1.844031 2.498502 -2.507277 -10.163595 4.678943 4.621106 -20.976013 -3e-06 2e-06 -21.226273 2.451696 -3.593996 -0.0 -6e-06 1e-06 -1.36268 2.240797 -0.746323 -21.334904 0.584909 3.008323 -13.821206 -3e-06 3e-06 -23.887161 -0.249077 -0.839482 -60.049583 2.664992 -1.148942 -0.294025 1.679687 0.833255 -14.218201 0.093214 1.300581 -34.21204 -0.287563 0.967171 -20.033205 0.964536 1.212843 0.0 -0.0 -0.0 -3.440386 0.788232 0.501656 -15.928181 -3.167309 2.999707 -6.338824 -1e-06 1e-06 -18.123444 3.648182 -4.905668 -6e-06 1e-06 -1e-06 -7.00895 36.454845 4.501502 19.323158 49.391296 -6.152306 0.180269 26.074224 0.006351 -78.797562 -2.408204 7.783355 2.24354 -5.255028 -3.180154 14.282874 -0.826595 6.952495 -4e-06 -12.690588 5e-06 16.18284 -17.577255 2.954781 1.665663 -1.955916 -2.878296 4.727792 -4.170583 4.993919 11.020513 3e-06 -1e-06 12.109037 -3.73571 -2.866779 1e-06 -0.0 0.0 1.291984 -1.928546 -1.498088 14.800112 0.567467 3.865602 14.242557 -1.341733 -6.660649 19.631945 0.143927 -0.648243 49.201809 -0.787147 -6.185673 0.353028 -1.511148 -0.03194 20.222765 3.684306 2.316626 18.787251 5e-06 0.0 10.751617 -0.479868 1.397904 -0.0 0.0 -0.0 3.273803 0.305946 -0.58011 21.486788 11.830358 2.266126 8.162916 2e-06 -1e-06 18.399063 -3.79898 -4.940569 3e-06 0.0 -2e-06 -1.708269 1.540589 -52.796745 0.035522 1.147537 110.090363 4.88504 -14.225895 29.422209 1.181897 -1.878086 -9.801707 0.0 0.0 1e-06 -0.557605 -8.863066 -34.674347 0.718934 2.06694 95.375328 2.764879 11.257326 31.722404 -1.708945 0.787395 -3.165255 -0.0 -0.0 -3e-06 
